<svg xmlns="http://www.w3.org/2000/svg" viewBox="0 0 256 252.2" enable-background="new 0 0 256 252.2"><style type="text/css">.st0{fill:#BC9D6D;}</style><path class="st0" d="M44.9 244.3c2.9.3 5.5-1.7 6-4.5-.3 3.1 2 5.8 5.1 6.1 3.1.3 5.8-2 6.1-5.1.3-3.3 1.1-11.7 1.4-14.8h.2c20.1 1.6 42.7-13.3 47.2-45 1.9-13.7-1.6-27.4-9.9-38.5-5.7-7.5-13.1-13.2-21.6-16.7.6-1.2 1.1-2.6 1.3-4 .5-3.6-.4-7.2-2.6-10.2-2.2-2.9-5.4-4.8-9-5.3-6.7-1-13.2 3.3-15.1 9.8-.2.6-.3 1.2-.4 1.8-.2 1.4-.1 2.8.1 4.2-1.5.2-2.9.4-4.4.7l-3.6-9.8c3.6-2.5 6.4-6.2 7.6-10.6.6-2.2.9-4.4.7-6.7l-1.5-24.7c-.2-2.3-.7-4.5-1.6-6.6l13.3-11c.3.2.6.4.9.5 4.7 2.3 10 2.7 15 1l23.6-8c6.1-2.1 10.8-7 12.6-13.2v-.1l11.7-.2c1.9 4.8 5.7 8.8 10.8 10.9l23 9.5c4.8 2 10 2 14.8.1l5.2 6.6c-1.1 1.6-1.9 3.5-2.5 5.4-.7 2.6-.9 5.3-.6 8.1l3.4 24.7c1 7.4 6 13.2 12.5 15.7l-.3 8.2c-17.3.6-34 9.7-43.3 25.8-3 5.1-5.1 10.1-6.5 15-6.2 21.7 2.1 40.5 15.8 49.5.1 0 .1.1.2.2-1.6 2.7-6.1 9.8-7.9 12.7-1.7 2.6-.9 6.1 1.8 7.8 2.6 1.7 6.1.9 7.8-1.7-.2.4-.4.7-.5 1.1-.7 2.3.2 4.9 2.4 6.3 2.6 1.7 6.1.9 7.8-1.7.7-1.1 6.2-9.9 8.1-13 .1 0 .2 0 .2.1 18 9.1 44.6 3.8 60.7-24 12.1-20.9 8-46.7-8.5-62.9 1-.9 2-2 2.7-3.2.6-1 1-2 1.3-3.1 1.7-6-.9-12.5-6.3-15.6-6.5-3.8-14.9-1.6-18.7 5-.6 1-1 2-1.3 3.1-.1.3-.1.6-.2.8-1.4-.4-2.9-.7-4.3-1l.3-8.3c7-1.6 12.6-6.8 14.6-13.8.7-2.6.9-5.3.6-8.1l-3.4-24.7c-1.5-10.7-11.4-18.3-22.2-16.8-1.8.2-3.5.8-5.1 1.5l-5-6.4c.8-1.2 1.5-2.4 2-3.7 4.2-10.2-.8-21.6-10.7-25.7l-23-9.5c-4.9-2-10.2-2-15.1 0s-8.6 5.8-10.6 10.7c-.3.7-.5 1.4-.7 2.1-.1.5-.2 1-.3 1.4l-10.9.2c0-.1-.1-.2-.1-.4-1.7-5-5.2-9-9.9-11.3-4.7-2.3-10-2.7-15-1l-23.6 8c-6.1 2.1-10.8 7-12.6 13.2-1.1 3.9-1 7.9.3 11.7.3.9.7 1.8 1.2 2.7l-12.8 10.2c-3.5-2.3-7.7-3.4-12-3.2-8.3.5-15.4 6.3-17.6 14.2-.6 2.2-.9 4.4-.7 6.7l1.6 24.9c.7 10.6 9.7 18.7 20.3 18.4l3.5 9.6c-13.8 6.1-24.6 18.1-28.9 33.2-.6 2.3-1.1 4.6-1.5 7-4.5 31.7 13.2 52.4 32.9 56.3.1 0 .2 0 .2.1-.4 3.7-1.4 14-1.5 15.3-.4 3 1.9 5.7 5 6zm186.3-49.8c-9.5 16.4-28.3 28.4-45.8 19.6-5.4-2.7-11.7-1.2-14.5 3.4 2.6-4.7.8-11-4.2-14.3-16.4-10.8-15.3-33.1-5.7-49.5 11.3-19.4 36.2-26 55.6-14.8 19.2 11.3 25.8 36.3 14.6 55.6zm-10-68.6c.7-1.2 2.2-1.6 3.3-.9 1 .6 1.4 1.7 1.1 2.8l-.2.6c-.7 1.2-2.2 1.6-3.3.9-1.2-.7-1.6-2.3-.9-3.4zm-14.6-56l3.4 24.7c.2 1.2.1 2.3-.2 3.4-.6 1.9-1.8 3.6-3.4 4.7l.3-8c.1-3.1-2.3-5.7-5.4-5.8-2.6-.1-4.9 1.6-5.6 4.1-.1.4-.2.9-.2 1.4l-.2 6.7c-.9-1.2-1.6-2.6-1.8-4.2l-3.4-24.7c-.1-.6-.1-1.2-.1-1.8l3.9 4.9c1.9 2.4 5.5 2.9 7.9.9 2.4-1.9 2.9-5.5.9-7.9l-4.5-5.7c4.1 0 7.8 3 8.4 7.3zm-63.6-51.7c2.1-.9 4.4-.9 6.4 0l23 9.5c3.6 1.5 5.7 5.3 5.1 9.1l-2.7-3.4c-1.9-2.4-5.5-2.9-7.9-.9-1 .8-1.6 1.8-1.9 2.9-.5 1.7-.2 3.6 1 5l2.8 3.6c-.9-.1-1.9-.2-2.8-.6l-23-9.5c-.5-.2-1-.5-1.4-.7l4.2-.1c3.1-.1 5.6-2.6 5.5-5.7-.1-3.1-2.6-5.6-5.7-5.5l-6.7.1c1-1.8 2.4-3.1 4.1-3.8zm-71.9 10.1l23.6-8c2.1-.7 4.4-.6 6.4.4.9.5 1.7 1.1 2.4 1.8l-4.5.1c-2.5.1-4.6 1.8-5.3 4.1-.1.5-.2 1.1-.2 1.7.1 3.1 2.6 5.6 5.7 5.5l4.4-.1c-1 1.1-2.2 1.9-3.6 2.4l-23.6 8c-.5.2-1.1.3-1.7.4l4.1-3.4c2.4-2 2.7-5.5.8-7.9-2-2.4-5.5-2.7-7.9-.8l-6.2 5.1c-.6-3.9 1.8-8 5.6-9.3zm-45 69.3l-1.6-24.9c-.3-4.6 3.3-8.7 7.8-8.9h1.4l-3.8 3.2c-.9.8-1.5 1.7-1.8 2.8-.5 1.7-.2 3.6 1.1 5.1 2 2.4 5.5 2.7 7.9.8l4.2-3.5 1.6 24.3c.1 1 0 1.9-.3 2.9-.2.8-.6 1.6-1 2.2l-2-5.5c-1.1-2.9-4.3-4.4-7.2-3.3-1.8.6-3 2.1-3.5 3.7-.3 1.1-.3 2.3.1 3.5l1.6 4.5c-2.5-1.3-4.3-3.8-4.5-6.9zm39.1 23.8c-.2-.3-.6-.9-.5-1.8.2-1.4 1.4-2.3 2.8-2.1.9.1 1.4.6 1.6.9.2.3.6.9.5 1.8 0 .1 0 .2-.1.3-.3 1.2-1.5 1.9-2.7 1.7-.8 0-1.3-.5-1.6-.8zm-45.9 46.7c3.1-22.2 23.7-37.7 45.9-34.6 10.8 1.5 20.3 7.1 26.8 15.8 6.5 8.7 9.3 19.4 7.8 30.1-3.5 24.9-20.3 36.6-35.1 35.4-6-.5-11.2 3.3-12.1 8.6.6-5.4-3.4-10.4-9.3-11.6-19.2-3.9-26.6-24.9-24-43.7z" id="Your_Icon_2_"/></svg>