<svg xmlns="http://www.w3.org/2000/svg" viewBox="0 0 256 155" enable-background="new 0 0 256 155"><style type="text/css">.st0{fill:#BC9D6D;}</style><path class="st0" d="M191.4 90c11.8-3.6 24.1-8.4 35.8-14.8 18.9-11 28.5.4 21.5 17.7-6 16.3-37.7 46.7-65.4 53.6-10.6-7.5-31.4-12.6-55.4-12.7-24 .1-44.8 5.2-55.4 12.7-27.5-6.9-59.3-37.3-65.2-53.6-7-17.2 2.7-28.6 21.5-17.7 11.8 6.4 24 11.2 35.8 14.8 25.3 7.6 48.6 9.5 60.7 9.5h6.7c12.1-.1 34.8-2.1 59.4-9.5z"/><path class="st0" d="M157.2 13.3c9.9 4.9 25.9 51.3 32.1 70.4-23.8 6.9-45.6 8.8-57.4 8.9h-6.7c-11.8 0-34.1-1.8-58.7-8.9 6.2-19 22.3-65.4 32.2-70.4 11.3-5.7 21 3.7 28.8 4.6h-1.5c.6.1 1.2.1 1.9 0 .6.1 1.3 0 1.9 0h-1.5c7.9-.9 17.6-10.3 28.9-4.6zm-3.8 36c0-2.1-1.7-3.7-3.7-3.7-1.9 0-3.4 1.4-3.7 3.2l-11.5-1.7-5.1-10.3c1.4-.6 2.3-1.9 2.3-3.5 0-2.1-1.7-3.7-3.7-3.7s-3.7 1.7-3.7 3.7c0 1.6 1 2.9 2.4 3.5l-5.1 10.2-11.6 1.8c-.2-1.8-1.8-3.2-3.7-3.2-2.1 0-3.7 1.7-3.7 3.7 0 2.1 1.7 3.7 3.7 3.7 1.3 0 2.4-.6 3.1-1.6l8.2 8-2.1 12c-.5-.2-1-.3-1.5-.3-2.1 0-3.7 1.7-3.7 3.7 0 2.1 1.7 3.7 3.7 3.7 2.1 0 3.7-1.7 3.7-3.7 0-.8-.2-1.5-.6-2.1l10.9-5.7 10.9 5.7c-.4.6-.7 1.3-.7 2.1 0 2.1 1.7 3.7 3.7 3.7 2.1 0 3.7-1.7 3.7-3.7 0-2.1-1.7-3.7-3.7-3.7-.5 0-1 .1-1.4.3l-2.1-12 8.2-7.9c.7 1 1.8 1.6 3 1.6 2.1-.1 3.8-1.7 3.8-3.8z" id="XMLID_1_"/></svg>