<svg xmlns="http://www.w3.org/2000/svg" viewBox="0 0 256 256" enable-background="new 0 0 256 256"><style type="text/css">.st0{fill:#87714F;}</style><path class="st0" d="M232.4 176.6c-1.8 0-3.3.6-4.7 1.4l-29.4-49.5 29.4-49.5c1.4.8 2.9 1.4 4.7 1.4 5.1 0 9.3-4.2 9.3-9.4s-4.2-9.3-9.3-9.3c-5.2 0-9.3 4.2-9.3 9.3v.1l-57.5.9-28.2-50.2c2.8-1.6 4.8-4.5 4.8-8 0-5.2-4.2-9.3-9.3-9.3-5.1 0-9.3 4.2-9.3 9.3 0 3.5 2 6.4 4.8 8l-28.1 50.2-57.5-.7v-.1c0-5.2-4.2-9.3-9.3-9.3-5.2 0-9.3 4.2-9.3 9.3 0 5.2 4.2 9.4 9.3 9.4 1.7 0 3.3-.6 4.7-1.4l29.4 49.5-29.4 49.5c-1.4-.8-3-1.4-4.7-1.4-5.2 0-9.3 4.2-9.3 9.3 0 5.2 4.2 9.4 9.3 9.4 5.1 0 9.3-4.2 9.3-9.4v-.1l57.5-.7 28.2 50.2c-2.8 1.6-4.8 4.5-4.8 8 0 5.2 4.2 9.4 9.3 9.4 5.2 0 9.3-4.2 9.3-9.4 0-3.5-2-6.4-4.8-8l28.2-50.2 57.4.7v.1c0 5.2 4.2 9.4 9.3 9.4 5.1 0 9.3-4.2 9.3-9.4 0-5.3-4.1-9.5-9.3-9.5z" id="Your_Icon_8_"/></svg>